<svg width="578" height="521"   id="Layer_1" data-name="Layer 1" xmlns="http://www.w3.org/2000/svg" viewBox="0 0 1000 1000">
<defs><style>.cls-1{font-size:183.67px;}.cls-1,.cls-2,.cls-3,.cls-4{fill:#fff;}.cls-1,.cls-2{font-family:Armiesdisplay, Armies display;}.cls-2{font-size:117.85px;}.cls-4{font-size:26.15px;font-family:SalmaAlfasans-Medium, Salma Alfasans;}</style></defs><title>h logo white </title><text class="cls-1" transform="translate(264.2 549.38)">COME</text><text class="cls-2" transform="translate(712.23 549.89) rotate(-90)">IT</text><path class="cls-3" d="M635.58,543.31a23.6,23.6,0,0,1,3,2.63c.44.52.35,1.5.5,2.27-.8-.24-1.81-.26-2.35-.77-.87-.82-1.44-2-2.54-2.92.07,1.18.2,2.37.2,3.55a4.49,4.49,0,0,1-.39,1.7c-.06.13-.86.15-.9.06a5.2,5.2,0,0,1-.45-1.86,13.91,13.91,0,0,0-.06-3.52,27.5,27.5,0,0,1-2.44,3.21c-.44.44-1.34.43-2,.62.05-.72-.16-1.66.22-2.11.9-1.07,2.08-1.91,3-3.16a15.23,15.23,0,0,1-3.32.78,3.88,3.88,0,0,1-2.5-.93,2.06,2.06,0,0,1,.15-2,4.36,4.36,0,0,1,2.59-.76,21.55,21.55,0,0,0,2.88.35,13.62,13.62,0,0,1-2.44-2.13c-.42-.57-.31-1.53-.43-2.31.74.2,1.67.2,2.19.66a33.85,33.85,0,0,0,2.52,2.64,22.37,22.37,0,0,1-.15-2.29,25.27,25.27,0,0,1,.31-3,2.57,2.57,0,0,1,.89,0,25,25,0,0,1,.34,2.78c.05.79,0,1.59,0,2.88a23.63,23.63,0,0,1,2.48-3.23c.45-.41,1.37-.32,2.07-.46-.07.67.1,1.53-.25,2-.76,1-1.78,1.69-2.58,2.88a12.19,12.19,0,0,1,3-.79,4,4,0,0,1,2.51.87,2.06,2.06,0,0,1-.08,2,3.33,3.33,0,0,1-2.34.79,16.77,16.77,0,0,1-3.31-.88Z"/><text class="cls-4" transform="translate(285.77 600.56) scale(1.2 1)">PRINT AND PACKAGNG</text></svg>